<?xml version="1.0" encoding="utf-8"?>
<!DOCTYPE svg PUBLIC "-//W3C//DTD SVG 1.1//EN" "http://www.w3.org/Graphics/SVG/1.1/DTD/svg11.dtd">
<svg version="1.1" xmlns="http://www.w3.org/2000/svg" xmlns:xlink="http://www.w3.org/1999/xlink" width="960" height="960" viewBox="0 0 960 960" fill="none" stroke="black">
  <path d="M84.106441,613.764911L84.509645,599.663111L84.730447,574.665134L84.740047,571.510977L84.99925,543.270615L84.99925,543.086807L85.200852,528.992359L85.258453,526.573437L87.744877,526.632256L88.560886,525.73527L90.884109,527.154273L91.517715,526.977816L93.466535,528.065963L93.860139,529.293805L94.484145,531.830365L96.480965,533.911079L97.488975,537.322567L98.180182,537.940164L99.053791,537.991631L100.810608,539.410634L102.04902,540.476724L101.799418,542.197173L104.199442,541.160492L104.97705,542.785361L106.897069,542.380982L111.821918,542.116297L115.03795,539.690023L116.842768,539.094483L118.474785,540.322325L119.761198,539.71208L118.868389,539.234177L119.492395,538.719513L121.143611,538.969493L120.548405,537.851936L122.084421,538.072507L123.399634,537.499024L123.582036,536.271182L128.074881,535.51389L128.708487,537.726946L129.802898,537.116702L132.644526,534.403686L134.641346,534.675723L135.476555,533.521404L136.96457,533.205253L138.577386,532.771465L140.478205,531.183358L141.553416,531.793603L142.206222,530.940731L144.433444,531.845069L146.430264,530.396657L147.399874,530.992197L148.743887,529.734946L149.751898,530.198144L151.04791,528.83796L156.337563,527.455719L156.251163,530.234906L162.424024,530.24961L174.808148,529.992278L188.920289,529.992278L206.805268,530.095211L207.04527,530.006983L206.430864,530.49959L219.170192,530.521647L230.584706,530.595171L230.651907,537.587252L244.639246,538.094564L244.293643,548.976036L243.708037,548.961331L243.362434,560.438344L243.084031,568.812666L243.00723,571.187474L242.296823,591.002047L241.797618,609.235866L241.644016,614.595726M174.808148,529.992278L174.827348,543.689699L174.760148,551.534653L174.683347,557.901784L174.616146,575.018046L174.606546,575.709167L174.596946,578.017804L174.596946,579.083894L174.587346,594.884086L174.587346,614.470736M727.284073,795.595786L726.400864,795.816356L725.652057,795.559024L724.212042,795.110531L722.733627,795.279635L722.234422,795.448739L721.860019,795.603138L721.284013,795.779594L719.920799,796.036926L719.143191,796.220735L718.95119,796.294259L717.95278,796.676581L717.933579,796.70599L717.472775,797.330939L716.98317,798.485258L715.303153,798.580838L713.479135,797.735318L711.914319,797.220654L710.320703,796.257497L709.927099,796.066336L709.456695,795.434034L709.331893,794.845846L709.331893,794.41941L709.303093,793.559186L709.139891,792.16224L709.082291,791.088797L709.091891,790.949103L709.370294,790.184459L709.610296,789.331587L710.090301,788.500772L710.387904,787.802299L710.416704,787.736128L710.599106,787.339101L711.165512,786.500933L711.789518,784.98635L711.97192,784.684904L711.923919,784.214354L711.530315,783.802622L710.95431,784.39081L710.147901,783.986431L708.679087,783.44971M710.301503,777.619299L712.221522,778.273658L712.586326,778.413353L712.941529,778.501581L713.527135,778.722151L714.237542,778.972131L715.274353,779.266225L716.522365,779.677956L717.175172,779.891174L717.501575,780.023516L717.904779,779.097121L718.317583,778.472171L718.327183,778.928017L718.835988,778.957426L719.248792,779.12653L719.805598,779.545614L720.0072,780.332315L720.189602,780.949912L720.324003,780.979321L722.061621,781.317529L725.824858,782.390972L726.97687,782.714475L726.99607,782.721827M439.156392,612.081224L438.97399,604.824458L438.925989,604.353908L438.513185,599.876329L438.503585,599.832215L438.109981,593.715063L437.610776,587.083247L437.236372,581.877786L440.769208,581.598396L440.673207,577.385502L441.162812,577.34874L441.268413,574.518087L440.500405,572.312383L439.377194,571.481568L439.319593,570.20226L441.220412,570.055213L440.308403,566.7246L438.762788,566.805476L437.99478,564.386554L438.935589,564.34244L438.858789,562.769038L437.207572,560.342763L436.631566,557.343006L437.514775,557.306244L436.775568,552.519867L435.834758,552.505162L436.055561,550.306811L435.460355,546.873265L434.759548,545.54249L443.409234,545.086645L447.575676,544.866075L447.748477,545.461615L451.895719,545.204283L466.497465,543.917622L466.843068,547.468805L468.215882,555.276997L468.484685,558.115003L469.550296,569.10676L470.510305,571.61391L472.468725,570.76839L482.299223,570.459592L484.161642,570.6434L494.088141,570.239021L494.347343,572.253564L494.558546,578.819209L507.057871,578.525116L520.747607,578.150146L520.910809,598.354393L521.102811,602.9202L522.571626,604.853867L523.598836,607.919796L525.739657,609.088819L528.178082,608.191833L528.782888,609.581426M374.00054,383.518837L374.643746,391.694646L375.843758,410.126978L376.342963,410.090216L390.416704,409.377038L390.723907,414.089892L391.693517,427.265297L390.138301,427.750552L391.079111,429.669514L391.943119,433.57361L391.751118,434.066217L389.658297,433.735361L388.736687,435.102898L389.754298,448.469463L389.869499,450.138446L393.287133,449.859057L394.01674,460.042056L394.170342,462.277169L395.216752,475.827544L406.304863,475.018785L413.351334,481.680011L415.751358,485.128261L416.327363,487.481012L417.882579,511.067339L417.892179,511.368785L401.648816,512.258419L394.97675,512.611332L394.899949,511.192329L376.429364,512.368704L376.390964,511.861392L370.208502,512.251067L369.565296,510.280638L367.856479,504.70756L366.330063,502.42098L363.699637,499.891773L362.566826,497.884582L362.00042,495.46566L361.184412,488.642683L361.059611,485.517936L362.163622,482.790215L362.317223,482.466712L363.411634,479.650764L363.555636,476.614245L362.787628,471.342612L361.098011,467.269413L360.858009,464.887252L361.318813,460.696415L361.01161,459.505335L360.896409,457.689305L361.02121,456.226188L362.077221,454.939528L361.914019,453.388183L362.864429,452.130932L362.682027,450.292845L363.920439,448.454759L363.603636,447.484249L362.931629,444.859461L363.277233,440.940661L364.419644,439.90398L364.813248,438.345282L364.285243,430.088598L363.99724,425.184583L363.421234,415.597123L362.749227,406.362576L362.605226,406.362576L361.789218,395.753141M76.263163,521.279748L77.568776,522.059097L78.874389,521.272396L80.208802,521.691479L80.477605,522.536999L82.858429,523.941297L81.677617,524.301562L85.258453,526.573437M335.859359,613.47817L335.696157,601.354151L335.667357,598.744068L335.590556,593.634187L335.504155,581.443997L335.494555,580.01029L335.388954,568.599448L335.408154,567.151036L348.541085,566.062889L357.171572,565.732033L362.99883,565.75409L363.248432,573.150551L363.507635,573.143198L368.864489,573.018208L368.902889,574.738657L373.395734,574.606315L374.106141,575.297436L376.794168,572.8344L376.726967,567.305435L386.413464,567.32014L386.797468,572.665296L386.97987,587.767015L383.859839,587.767015L384.925449,591.678463L384.311043,591.722577L384.704647,592.457812L385.511055,600.060138L386.672667,604.559774L384.416644,611.434217L384.887049,612.941448M466.497465,543.917622L466.247862,541.263425L465.518255,531.874479L464.414244,519.647527L462.167822,494.120181L472.420724,493.120262L494.328143,491.135128L502.142621,490.524884L516.811568,489.113233L516.926769,490.296961L523.666037,489.73083L532.574926,488.833844L532.96853,489.848468L532.123721,491.282175L532.632526,492.95851L531.490115,495.046577L530.789308,497.700774L530.0117,498.553646L529.128491,499.384461L528.821288,502.406275L529.867699,505.170757L529.829298,506.766216L529.090091,507.192653L529.9733,508.552837L528.370084,510.118886L528.398884,512.758379L529.877299,514.096506L528.600486,518.404981L525.058051,520.110725L524.453245,522.750217L523.426034,523.485452L522.562026,526.992521L521.112411,526.955759L521.880419,527.823336L521.573216,528.80855L522.062821,530.580466L520.99721,532.043583L521.650017,534.874236L523.310833,537.440205L523.474035,539.476805L524.549245,540.814932L524.866049,543.072102L524.213242,544.219068L522.811628,544.733732L521.227612,548.049641L522.226022,551.350844L522.850029,552.409582L521.938019,553.152169L522.408424,554.431477L520.594006,557.879727L520.526805,558.857589L520.594006,564.121869L520.632406,569.665538L520.747607,578.150146M748.625086,187.321477L734.292143,189.586L734.868149,192.453415L733.620136,193.453334L731.565716,196.239873L730.97051,198.129426L727.456875,197.997084L724.269643,199.055822L723.674437,200.717452L722.532025,201.937942L717.655177,203.967189L716.359164,203.503992L713.315933,205.018575L712.682327,205.922913L710.848708,206.540511L707.738277,205.908209L702.323823,206.621386L683.805238,209.665258L682.01002,197.636819L679.9844,186.10834L678.505985,186.395082L677.056371,177.14583L675.424354,166.727556L675.136351,164.808593L672.822728,165.139449L671.517115,155.985778L669.501095,144.369071L669.318693,138.604831L668.915489,134.899249L667.744277,129.032077L665.929859,118.812315M751.927519,592.009319L748.98989,592.119604L748.922689,603.79513L745.418654,603.368694L734.96415,601.765882L726.631266,600.493926L723.808838,599.133742L721.120811,597.854434L713.392734,594.465002L710.138301,593.01659L703.936639,590.310927L701.488615,589.509521L701.344613,590.237403L699.818198,589.935957L699.856599,589.465407L700.557406,584.840781L701.200612,582.973285L701.709417,581.980718L703.495035,577.091408L703.725437,575.135684L704.397444,574.929818L706.883869,572.790286L707.843878,571.290407L708.247082,569.378797L708.083881,566.548144L709.082291,564.063051L710.493505,562.364659L712.893529,561.276511L714.458345,559.666348L714.727147,559.269321L715.629556,556.468077L715.667957,555.188769L715.773558,553.5639L715.293553,550.064183L715.475955,549.262778L714.746347,546.439477L714.650347,545.998336L713.642336,540.947274L715.418354,532.249448L715.437554,528.757084L714.823148,526.867531L714.199142,526.749893L721.97522,525.301481L725.901659,524.54419L729.9529,523.764841L732.189722,523.345757L745.284253,520.610684L746.724267,520.287181L762.01722,517.2139L765.137251,516.655122M416.327363,487.481012L425.649056,486.723721L439.357994,485.569402L439.357994,485.31207L448.238082,484.576836L461.159812,483.27547L462.167822,494.120181M434.759548,545.54249L420.071401,546.307134L419.744997,541.395767L418.717787,524.779465L418.621786,523.191358L418.381784,519.316671L417.892179,511.368785M520.526805,558.857589L522.571626,558.659076L523.646836,557.842966L524.357244,558.563496L524.923649,557.585634L525.701257,558.401744L527.755678,557.820909L529.358894,558.48262L531.432514,557.423882L533.611736,557.115083L535.04215,554.299135L537.758978,552.343411L537.365374,551.314082L538.622986,549.784794L541.051811,549.961251L543.97024,549.468643L544.96865,547.917298L546.98467,547.373225L546.360664,550.872941L552.178322,546.255668L552.687127,546.932084L555.106351,544.799903L554.539945,544.086726L555.922359,542.770656L558.399184,540.381143L562.431224,538.61658L567.125671,538.697456L567.231272,534.638961L569.199292,535.690347L570.168902,536.852017L570.495305,535.749165L571.311313,536.131487L572.252123,532.300915L572.99133,532.124459L574.03774,531.948002L574.306543,532.999388L576.97537,531.12454L587.573876,524.433904L595.513155,525.154434L596.271563,525.433824L598.546785,523.728079L600.754808,523.706022L601.321213,523.110482L603.318033,522.992845L604.786848,524.838283L614.96295,537.668128L615.097351,537.734299L618.620586,539.432691L621.212612,540.689942L636.342363,548.034936L638.214382,548.917217L632.531125,560.423639L626.166262,573.341712L636.620766,578.128089L630.534305,582.318926L627.289473,582.201289L624.745447,586.355364L611.180512,595.597264L598.181982,604.434784L590.770708,609.419674L582.629826,614.66925L574.172142,620.286442L572.751328,621.227543L555.183152,632.785431M752.426724,676.68629L746.378664,677.142136L743.469835,677.700914L738.285783,678.869937L735.213752,679.612524L720.525605,682.369654L715.379954,683.296049L712.787928,683.810714L707.747877,684.597415L703.917439,685.450287L698.925389,693.067318L698.531785,693.706972L696.822968,691.949761L696.141361,690.964547L696.208562,685.987008L696.438964,684.340083L696.054961,681.752057L695.99736,681.252097L696.266163,679.516943L696.95737,676.943622L698.070981,674.877613L699.578196,673.171869L700.663007,670.451501L700.768608,669.120726L700.730207,665.223982L700.864609,660.231739L700.912609,656.327643L701.344613,653.835198L700.768608,650.820736L700.874209,648.909126L701.04701,647.093097L701.114211,645.438819L700.634206,641.571485L700.231002,640.990649L699.578196,639.89515L699.376594,636.689527L699.616596,632.579565L699.290193,627.263819L700.307803,624.425813L700.144601,623.315609L699.424594,621.823083L697.341373,618.948315L696.947769,616.794078L697.293373,616.066195L697.610176,615.727988L697.907779,610.456355L698.656587,606.390508L698.781388,605.794968L699.520595,601.640892L699.856599,600.170423L699.290193,597.825024L699.635796,592.737201L700.067801,591.869624L699.818198,589.935957M91.239312,440.808318L94.628146,440.72009L95.194552,440.756852L99.9658,441.073003L104.593046,443.616915L106.090661,445.85938L106.196262,446.462273L106.397864,448.425349L107.837878,448.484168L109.815498,448.315064L110.99631,448.910604L112.397924,448.895899L113.665137,447.17545L114.077941,446.60932L113.386734,444.705062L113.405934,443.918361L114.461945,443.712495L116.564366,443.146365L116.881169,441.433268L119.655597,441.521496L120.577206,440.859785L123.582036,440.84508L124.99325,438.521739L126.702067,439.051108L128.074881,438.11736L129.322893,438.220293L129.9853,437.845323L130.878109,439.154041L131.348513,438.507034L133.124531,438.234997L135.04455,439.190802L135.178952,437.735038L136.513365,437.14685L137.617376,438.477625L138.692587,438.257054L138.721387,439.654L140.535805,439.87457L140.276603,440.617157L142.388624,440.455406L143.588636,439.389316L143.569436,437.926199L146.593466,437.279192L147.822278,438.426158L150.923109,437.558581L151.355114,436.492491L152.612726,438.845242L153.553536,438.771719L156.683167,438.46292L156.769568,438.021779L156.769568,441.867056L156.865569,450.211969L156.673567,459.74061L156.587166,473.84241L153.99514,473.783591L153.687937,487.730992L156.644766,487.929505L156.500765,501.943077L156.644766,513.096587L156.587166,516.088991L156.337563,527.455719M750.468305,306.914741L743.661837,308.061707L736.548165,309.252787L722.820028,311.906984L703.466235,315.502282L693.808538,317.25214L671.97792,321.259169L672.121921,317.068331L672.97633,315.267007L672.352324,314.097984L672.745927,312.826028L670.883509,312.399592L668.157082,311.009998L667.753878,311.708471L666.160262,311.708471L661.907419,309.863032L661.542615,308.28963L660.611406,307.995536L657.596976,309.076331L655.916959,309.083683L654.419344,309.782156L653.209732,311.362911L638.060781,293.504062L647.152072,285.879679L643.072031,261.638993L664.787448,257.889297L661.283413,238.015905L659.929799,229.406307L659.411394,226.935919L657.241772,214.547216L683.805238,209.665258M643.072031,261.638993L631.187112,263.609422L613.839738,266.32979L612.428524,256.080619L612.284523,255.029234L614.463745,254.742492L613.378934,246.860777L610.0381,225.56103L609.231692,220.208522L606.543665,201.952646L601.167612,166.52169L599.919599,157.515066L599.02679,150.971478L597.682777,141.273733L595.97396,128.833563L590.521105,129.002667L586.99787,129.127657L586.057061,122.385556M672.342723,440.881842L672.947529,444.646243L662.233822,445.072679L650.272103,445.432944L626.694267,446.322578L620.367804,446.521091L612.95653,443.955123L594.284343,437.52182L593.96754,435.588153L592.99793,434.617643L592.421924,431.772285L593.285933,430.404749L592.767528,426.780042L593.97714,426.757985L593.948339,425.846294L597.509975,424.802261L596.665167,421.802503L599.756398,420.743766L598.469985,419.038021L599.842798,416.942603L600.98521,416.832317L600.96601,415.795637L599.189992,404.928869L598.364384,398.686727L598.297183,398.223529L619.666997,407.237506L628.691087,406.09054L644.089641,404.017178L644.752048,408.355062L656.646566,406.737546L656.060961,402.429071L665.901059,401.039478L668.512285,417.141116L668.771488,418.780689L670.768308,431.16204L672.342723,440.881842M156.769568,438.021779L156.788768,437.565934L156.683167,431.559067L163.124831,431.264973L174.97135,431.206154L175.067351,431.206154L181.873819,431.228211L197.98278,431.088517L197.97318,431.228211L205.922059,431.242916L211.922119,431.000289L222.703027,430.904708L222.443824,431.588476L217.720577,445.219726L217.384574,446.131417L222.933429,446.528444L222.261423,454.513092L222.088621,461.424297L219.381394,461.343421L219.314193,465.578373L219.275793,467.872305L216.866169,467.776724L216.942969,474.754101L212.162122,474.68793L212.152522,474.393836L202.811628,474.592349L202.811628,473.548316L188.929889,473.504202L178.648186,473.629192L175.192152,473.540964L156.587166,473.84241M636.342363,548.034936L643.907239,544.652857L646.576066,546.035098L647.96808,547.424691L651.347313,546.579171L651.95212,547.027664L653.478535,546.071859L656.195362,545.829232L658.201782,543.175035L659.910599,543.425015L658.547385,538.454829M701.709417,581.980718L700.778208,581.7675L694.00054,577.054646L690.342903,574.473973L690.314103,576.679677L687.770078,577.00318L685.610056,575.760633L683.411634,583.774691L682.288423,587.8773L658.595386,586.517116L656.809768,586.399478L654.265743,586.267136L641.276813,580.260269L636.620766,578.128089M598.364384,398.686727L581.727417,391.532894L579.797798,390.694727L583.340233,382.02631L589.714697,366.527564L586.095461,339.654739L581.122611,302.878303L576.99457,272.491056L590.357904,270.410342L613.839738,266.32979M671.97792,321.259169L653.708937,324.655953L655.523355,336.169727L658.96979,358.101776L662.694627,382.136596L665.901059,401.039478M594.284343,437.52182L596.281163,440.146607L596.751568,442.139093L596.492365,445.219726L596.924369,445.381478L596.03156,457.130527L595.02355,467.335584L581.132211,462.181589L580.345003,469.717744L579.653797,472.967481L578.261783,474.173266L572.444124,470.901472L566.933669,467.879657L554.779948,461.490468L550.450305,469.511878L542.088621,470.313284L541.781418,466.526826L543.04863,466.372426L542.02142,456.696739L540.562206,443.433106L540.0438,438.639376L541.311013,436.654243L542.655027,434.485301L544.258243,434.801452L544.738247,433.610371L543.826238,432.661919L544.363844,431.801694L544.469445,431.647295L545.554256,429.919494L546.571866,428.331387L546.821468,427.882894L551.583116,419.229182L556.757568,409.744656L556.546365,408.663861L554.184742,409.325572L550.383104,407.744817L550.210302,406.862536L548.885489,406.612556L547.95428,405.561171L546.917469,406.722841L546.783068,405.149439L545.871059,405.502352L545.99586,402.70846L547.099871,400.091025L547.051871,397.466237L549.154292,397.054506L550.315903,397.517704L550.555906,396.4075L551.890319,395.944302L552.754328,394.040044L555.307953,393.047477L555.00075,390.496213L553.618336,379.122134L551.928719,366.26288L551.02631,357.690044L549.787898,347.14678L547.695077,330.155508L544.882249,307.363234L540.159002,269.447185L552.888729,276.549551L576.99457,272.491056M458.826988,222.230417L469.924699,229.009281L477.134371,233.354517L490.862509,241.096538L497.505775,244.949167L500.0306,246.426989L505.185852,249.742897L507.537875,250.933977L496.526565,269.836859L501.057811,272.593989L503.784238,274.285029L501.777818,278.056782L502.891429,278.740551L501.931419,280.483057L502.085021,284.798884L496.488165,285.188558L497.505775,291.695385L493.531335,292.217401L491.736117,292.085059L490.420904,291.320415L480.446404,300.224106L472.843128,306.797104L463.223832,306.208916L462.686227,316.796295L462.436624,321.141531L466.03666,321.29593L469.895899,321.523853L471.748717,337.581377L450.599706,336.074146L442.391624,335.368321L442.900429,341.654577L429.143491,340.551725L422.087421,340.169403M700.576606,815.895614L701.01821,815.579463L701.03741,815.461825M701.133411,815.366245L701.786218,814.50602L701.872619,814.233983L701.901419,814.182517L702.151022,813.572272L702.247022,813.307588L702.343023,813.109074L702.515825,812.756162L702.525425,812.741457L702.583026,812.535591L702.679027,812.506182L703.197432,812.37384L703.552636,812.388544L703.831038,812.270907L704.435844,812.212088L705.203852,811.594491L705.607056,811.859176L705.587856,811.447444L705.655057,811.043065L705.703057,810.984246L705.770258,810.484287L705.789458,810.410763L705.904659,810.175488L706.240662,809.572596L706.336663,809.374083L706.451865,809.013818L706.451865,808.631496L706.471065,808.491801L706.461465,808.271231L706.365464,807.933023L706.250263,807.102208L707.133471,806.63901L708.131881,806.896342L708.98629,807.543348L710.071101,808.263878L710.416704,808.381516L711.280713,810.153431L711.136711,810.55781L711.434314,811.293045L711.770318,811.52832L712.154322,811.800357L712.240722,811.866528L712.528725,812.065041L712.720727,812.197383L712.778328,812.506182L712.874329,812.572353L712.845528,812.822333L713.469535,813.241417L713.527135,813.667853L713.623136,813.726672L714.103141,814.072232L714.04554,814.182517L714.765548,815.513292L715.235952,815.314778L715.591156,815.167731L718.03918,813.278178L718.067981,813.366407L718.173582,813.917833L718.336783,814.616305L718.451985,815.197141L718.730387,815.314778L718.778388,815.520644L718.845588,815.800033L719.01839,816.027956L719.123991,816.483801L719.162392,816.594087L719.661597,817.233741L719.363994,819.740891L719.392794,819.7703L720.151202,821.608387L720.96721,821.498101L722.96403,823.872909L722.95443,827.284398L721.216812,830.372383L720.612006,830.842934L720.074401,831.195846L719.296793,831.71051L718.653587,832.144299L717.01197,832.997171L716.867969,833.041285L711.779918,834.21766L711.03111,834.416174M507.537875,250.933977L514.334743,254.793959L522.917229,259.911192L529.387694,263.455023L540.159002,269.447185M549.787898,347.14678L536.606966,356.175461L526.181262,363.233713L517.416374,369.174409L501.182612,380.349975L497.764978,379.438284L488.635286,376.754678L474.830348,372.879992L472.929529,347.882014L472.334323,342.838305L471.748717,337.581377M207.04527,530.006983L206.536465,527.801279L205.614856,527.257205L204.386044,528.176249L204.539645,527.220444L205.749257,526.338162L205.893259,524.110401L207.371674,522.588466L207.630876,521.573842L206.219662,522.154677L205.854859,520.647446L207.256473,519.287262L208.878889,519.743108L211.04851,518.471152L210.866109,517.49329L209.224492,517.941783L208.110881,516.838931L209.762098,515.794898L209.771698,515.772841L211.893319,514.787626L212.747727,514.890559L212.891729,513.148053L214.408544,511.148215L214.629346,508.780759L215.320553,507.133834L216.789368,506.398599L216.904569,498.884501L216.875769,484.84152L216.894969,483.209299L216.942969,474.754101M222.261423,454.513092L243.420034,454.366045L243.189632,455.410078L244.629646,455.851219L244.130441,459.086251L243.439234,460.83611L241.615216,461.541935L240.069601,461.483116L240.156002,462.137475L254.498545,462.166884L254.786548,461.43165L261.257013,461.483116L263.618636,465.122527L263.647436,468.585482L264.386644,468.997214L264.386644,470.805891L265.135451,472.688092L264.338643,474.584997L264.703447,476.026057L260.431404,476.055466L260.469805,490.79692L257.685777,490.774863L259.288993,505.538375L272.594726,505.736888L272.258723,509.618927L272.201122,520.794493L266.393064,520.647446L253.164132,520.390114L252.079321,520.390114L251.944919,527.735108L244.879249,527.757165L244.639246,538.094564M461.159812,483.27547L460.718207,477.687687L460.209402,471.80581L458.644586,451.197184L458.462185,448.388587L457.473375,435.595505L457.156572,434.977908L453.441334,435.470515L450.561306,434.897032L450.455705,432.933956L451.636516,430.287111L452.96133,430.69149L452.644526,429.088679L453.402934,427.772609L452.193322,428.125521L450.753308,426.919736L450.801308,424.58169L449.409294,421.581933L448.554886,421.94955L448.113281,420.03794L449.447694,420.854051L452.106921,420.420262L452.606126,421.743685L455.265353,420.949631L456.215762,423.353848L461.083011,424.228778L463.607836,425.544848L464.769448,423.98615L466.286263,423.29503L469.492695,423.074459L471.355114,423.39061L473.831938,421.302544L476.596766,423.317087L478.315183,422.302463L479.9568,422.596557L480.148801,423.633238L481.723217,424.36112L482.107221,426.699166L483.508835,426.221264L483.633636,427.184421L485.438454,428.081407L486.561666,430.09595L488.548885,430.265054L490.084901,433.161878L490.200102,435.874894L492.350524,436.632186L492.907329,437.661514L495.086551,438.617319L494.289743,439.683409L495.518555,442.771395L500.712207,442.271435L501.00981,445.035918L502.392224,459.358288L514.04674,458.79951L515.217952,470.063304L530.491705,468.60754L537.586176,468.019352L538.104581,469.67363L537.787778,472.349884L538.776588,474.033571L537.566976,475.75402L537.864579,477.32007L537.355774,480.319827L537.547775,481.444736L536.798968,483.371051L535.061351,484.319503L534.389344,485.56205L534.398944,487.083986L533.122131,487.628059L532.574926,488.833844M285.03645,407.538952L285.190052,415.913274L285.238052,419.457105L285.257253,420.464376L285.305253,422.677433L285.545255,432.279597L285.554856,432.375177L285.756458,440.021617L285.804458,441.844999L285.871659,446.638729L277.193172,446.7049L272.402724,446.756367L272.652327,456.13796L272.834728,461.549287L263.98344,461.483116L261.257013,461.483116M211.922119,431.000289L211.97012,416.994069L211.97012,416.81026L212.104521,406.399338L212.114121,405.994959L212.123721,393.40039M672.947529,444.646243L673.04353,445.219726L673.686737,449.006184L675.193952,458.417188L675.088351,458.498063L674.809948,458.711281L670.461105,462.005133L655.350554,473.114528L655.619356,473.710068L654.688147,475.687849L651.683317,477.878848L645.846458,478.393512L637.283173,479.687525L632.147121,480.474226L619.916599,474.871739L619.129391,474.540883L608.857289,472.254303L601.446014,469.622163L595.02355,467.335584M732.890529,830.247393L733.178532,829.894481L734.244142,829.048961L734.95455,828.835743L734.493745,827.085885L733.812138,826.00509L733.658537,826.012442L732.861729,826.255069L732.189722,826.174194L731.306513,825.747758L730.912909,824.306698L731.01851,823.740567L733.341733,822.321564L734.378544,822.100994L734.04254,820.307021L736.02016,819.137998L735.568956,817.461663L735.501755,817.064637L735.520955,815.807385L735.693757,815.057446L735.655357,814.336916L735.626556,813.851661L735.607356,813.734024L735.463355,812.131212L735.386554,811.18276L735.290553,809.896099L734.95455,808.55062L734.791348,808.072717L735.050551,807.910966L735.463355,807.690395L736.941769,807.190436L737.181772,807.138969L737.517775,807.021332L738.199382,805.411168L738.362584,805.095017L738.055381,802.992246L737.268173,802.426115L736.567366,801.896746L735.616956,801.161512L735.568956,801.110045L733.946539,799.955727L733.245732,799.426358L733.216932,799.411653L731.709717,798.455848M765.98206,782.810056L766.193262,784.17024L767.431674,787.133235L767.546875,787.927289L768.02688,790.530019L768.535685,792.88277L768.545285,792.897475L769.313293,796.632467L770.263703,801.492367L770.820508,804.139212L771.137311,805.719966L771.185312,805.940537L771.694117,808.6462L772.126121,810.800438L772.807728,814.292802L772.692527,817.035227L772.740527,817.48372L773.297333,824.284641M711.914319,797.220654L711.635916,798.852875L711.098311,799.441063L710.426304,800.161593L710.128701,800.418925L709.370294,800.264526L709.197492,800.411572L709.03429,801.183569L709.351094,801.293854L708.227882,802.779028L707.536675,804.058336L706.749467,805.300883L706.471065,805.844956L706.221462,806.741943L706.250263,807.102208M156.894369,392.275481L156.731167,403.362819L157.355174,417.376391L156.692767,429.132793L156.683167,431.559067M461.083011,424.228778L461.860619,412.119463L462.926229,397.672103L460.103801,396.804526L464.03984,383.959977L467.918279,370.924268L474.830348,372.879992M541.781418,466.526826L538.171782,466.982671L537.586176,468.019352M390.723907,414.089892L406.525665,412.964983L408.96409,412.964983L410.384904,413.251725L411.421714,413.487L413.092131,415.030993L414.157742,417.920465L415.280953,417.427857L416.336963,415.060402L415.540155,412.663537L414.676147,411.803313L416.634566,411.972417L418.391384,415.64859L419.677797,415.979445L420.810608,417.148468L422.692227,416.611747L422.922629,415.222154L424.324243,415.119221L423.325833,414.295758L422.98983,411.854779L422.308223,410.796041L421.98182,408.752089L422.193022,406.840479L423.412234,406.472862L427.089071,410.178444L428.538685,410.781336L430.650707,411.207773L431.860319,412.060645L433.684337,412.406205L437.226772,414.861889L438.733987,415.178039L437.361174,415.295677L437.97558,417.663132L438.820388,417.589609L441.825218,417.141116L443.466835,418.883622L445.95326,419.751199L446.730867,420.721709L448.113281,420.03794M285.871659,446.638729L292.601326,446.587263L300.598206,446.528444L300.617406,445.697629L302.383824,445.682924L313.721537,445.557934L314.03834,449.991399L318.761588,449.925228L320.460805,449.903171L334.064141,449.653191L334.236942,460.446435L334.352144,467.482631L334.380944,470.541207L334.400144,471.511716L334.409744,472.357236L332.499325,473.59243L332.393724,474.952614L333.171332,477.66563L332.720127,479.496364L333.123331,483.481336L333.238532,486.944291L332.883329,488.517693L333.670537,489.966105L328.179282,490.1058L328.064081,490.1058L315.660757,490.311666L313.155132,490.620464L293.138931,490.855739L292.96613,491.201299L290.249302,495.509774L288.396484,500.818168L287.98368,506.008925L286.831668,506.030982L287.01407,520.845959L280.274803,520.845959L272.201122,520.794493M604.96925,699.978523L603.884439,696.05237L604.124441,694.228988L605.199652,693.699619L603.846038,689.369087L604.825248,688.847071L620.761408,687.46483L631.715117,686.384035L635.161552,686.067884L638.252783,685.795847L638.147181,684.840042L639.375994,683.715133L640.604806,680.994765L642.544025,679.274316L642.908829,677.722971L644.636846,675.598143L644.896049,674.907022L647.200072,673.951217L647.420874,673.039526L650.780908,671.223497L652.576126,670.877937L652.864129,669.900075L653.939339,670.539729L656.358564,669.032498L658.144181,666.973841L659.564996,666.422415L662.925029,663.929969L664.624246,664.407872L664.624246,668.289911L665.440254,668.517833L672.477125,670.304454L672.813128,669.775085L679.917199,671.29702L678.688387,665.981274L683.085231,667.150297L684.208442,668.495776L684.832448,668.172273L686.03246,667.59879L686.781268,667.179706L688.662887,670.326511L688.682087,671.186735L690.707707,670.877937L696.803768,669.819199L700.768608,669.120726M698.531785,693.706972L700.701407,697.662534L701.527015,699.794714L702.99583,700.882862L702.208622,703.632639L701.671017,708.198446L699.414994,712.176065L694.461345,717.300651L689.200492,722.84432L685.792458,726.402855L678.477185,734.034591L675.625956,737.012291L672.717127,740.151743L670.0291,742.982396M608.857289,472.254303L607.090871,478.371455L606.927669,482.863739L607.081271,485.106204L608.204482,488.826492L610.95971,499.053605L611.055711,499.391813L612.255723,504.979596L607.734077,515.199358L603.318033,522.992845M752.02352,702.779767L738.160982,705.331031L738.074581,705.345736L733.96574,706.147141L730.95131,706.713272L726.938469,707.477916L726.938469,707.477916L723.703237,708.102866L721.600816,708.507245L719.363994,708.911624L716.147961,709.499811L713.824738,709.926247L710.080701,710.646777L710.0327,710.661482L699.299793,712.668673L699.414994,712.176065M719.507995,493.098205L717.904779,495.348023L717.645576,495.759754L717.04077,497.590488L716.723967,498.612464L715.859959,502.354809L715.840758,502.42098L715.763958,504.531103L717.02157,508.37638L716.762368,513.853878L716.387964,516.574246L716.109561,517.427118L714.794348,519.978383L713.882339,522.595818L714.199142,526.749893L711.155912,527.345434L710.800708,527.411605L707.920679,527.977735L694.787748,531.109835L692.925329,531.455395L678.697987,534.388981L677.910779,534.558085L658.547385,538.454829L657.452975,538.675399L657.212972,536.57998L658.499385,532.440609L659.267393,528.374762L660.99541,524.375086L661.312213,522.066449L661.110611,519.184329L659.9778,517.375652L659.03699,515.316995L659.468995,513.059825L659.756998,511.2585L661.321813,509.611574L661.840218,507.633793L664.259443,504.031144L664.365044,502.597436L665.737857,499.531508L666.726667,496.075905L666.573066,492.201219L666.95707,487.995677L665.01785,486.010543L673.696337,484.113638L679.830798,482.819625L681.702817,482.42995L686.934869,481.26828L692.762128,479.944857L692.97333,479.900743L694.01974,479.680173L697.197372,479.084633L699.434194,478.577321L701.210212,478.217056L706.797468,477.033328L706.864669,477.018624L708.621486,476.643654L708.621486,476.018705L709.792698,475.959886L711.175112,474.143856L712.307923,473.74683L713.373534,474.643816L715.447154,472.033733L716.791168,469.122204L717.482375,468.695768L718.547985,468.747234L719.363994,470.732368L719.03759,471.864629L720.189602,472.974833L720.448804,473.996809L722.330423,475.636383L722.887229,475.871658L724.298443,474.518826L724.135241,475.239356L723.655237,477.033328L723.578436,478.202351L723.309633,479.562535L723.242432,481.562374L722.599226,482.900501L722.292023,483.694554L722.196022,484.268037L722.128821,484.643007L721.99442,485.21649L721.773618,487.238385L721.936819,488.142723L721.514415,489.120585L719.690397,492.649712L719.507995,493.098205M724.298443,474.518826L724.308043,474.452655L724.692047,472.533692L724.711247,472.467521L725.95926,471.239679L726.02646,468.636949L725.181652,466.350369L724.557646,465.35045L723.770438,462.335988L723.95284,459.608268L722.474425,456.843786L722.503225,455.468897L722.97363,453.682277L724.98965,450.27814L726.103261,449.292926L727.869679,448.712091L741.809018,447.646L748.04908,447.168098L749.690697,447.028403L749.786698,445.947608L751.629916,444.712414L753.137131,445.16826L754.903549,444.874166L755.153152,445.616753L756.525965,445.359421L758.00438,446.712252L770.522905,446.035837M699.299793,712.668673L699.549395,713.867105L701.661417,716.116923L703.581436,717.175661L704.02304,717.962362L702.727027,719.844563L701.930219,720.918005L701.123811,722.638454L701.296613,724.528007L702.131821,725.145604L702.544625,726.689597L703.869439,727.895382L704.263043,728.402694L704.685447,728.954119L705.299853,729.748173L705.818258,730.468703L707.738277,734.203695L709.418294,737.66665L710.637506,738.762149L711.568716,739.79883L712.279123,741.761907L712.298323,741.989829L712.336723,743.298547L712.03912,746.790911L711.866319,749.070139L711.808718,750.842054L711.914319,752.716902L711.914319,752.761017L712.00072,753.716822L712.653527,756.731284L712.663127,756.826864L712.864729,760.48098L712.576726,763.296929L712.595926,764.605646M708.621486,476.018705L707.095071,475.864305L705.914259,473.982105L704.04224,472.041085L701.421414,468.350207L700.298203,467.445869L699.741397,465.159289L698.742987,464.946071L697.792578,464.843138L697.418174,462.328636L697.408574,462.225703L696.909369,458.79951L696.506165,456.285007L696.323763,455.174803L694.662947,455.388021L690.390904,457.711362L689.920499,457.417269L687.712477,454.82189L684.064441,452.050056L680.877209,450.733986L678.121981,449.21205L673.686737,449.006184M662.694627,382.136596L681.328413,378.791278L694.97975,376.328242L696.112561,378.460422L696.621366,380.372032L696.170162,381.599874L697.379774,383.143867L697.658177,384.702564L698.97339,385.893644L698.368584,387.128839L700.317403,388.893402L701.152612,390.834421L702.458225,390.974116L702.429424,394.348843L702.746227,395.245829L701.632616,397.422123L701.939819,399.973387L702.938229,400.642451L704.752648,399.752817L707.191072,400.620394L709.802298,404.068644L710.435904,403.539275L710.762308,402.480538L712.595926,400.627746L712.95113,399.414609L713.03753,396.738355L713.949539,396.010473L716.01356,395.459047L718.259983,393.848883L719.210392,394.106215L720.362404,396.863345L721.168812,396.760412L722.090421,395.253181L720.333603,393.363628L720.717607,392.032854L722.01362,392.385766L723.088831,392.415176L724.173642,391.841693L724.164042,389.812445L726.477665,389.856559L726.679267,389.819797L729.578496,389.474237L730.346503,390.341814L729.693697,391.937273L729.213692,395.539923L730.480905,396.15752L730.855309,397.936788L729.847298,399.458723L730.423304,401.4218L731.306513,402.14233L731.940119,403.995121L732.247322,405.097973L731.623316,407.685999L732.266523,409.377038L731.325713,411.376876L732.564126,413.589933L731.479315,416.391177L732.218522,418.920384L733.485735,420.280568L733.504935,421.295192L733.533735,421.464295L733.552936,423.559714L733.735337,425.853646L733.140131,427.779961L733.677737,429.382772L732.813728,430.875299L732.285723,433.786828L732.199322,436.64689L730.95131,438.80848L730.500105,442.080274L728.100081,444.087465L728.532085,446.381397L727.869679,448.712091M665.01785,486.010543L664.672247,488.863253L662.493025,489.230871L658.02898,488.113314L657.664177,488.495636L654.217742,489.03971L650.080101,483.878363L650.089701,483.076957L652.172922,482.253494L655.542555,481.98881L656.310563,480.54775L655.897759,478.959643L656.579366,477.54064L655.820958,475.967238L654.688147,475.687849M335.388954,568.599448L322.265623,569.239102L319.299193,569.775824L319.279993,569.474377L318.473585,550.850884L318.03198,535.558004L332.086521,535.227149L332.288123,538.719513L335.091351,538.521L335.158552,539.344463L342.387424,538.748923L343.99064,538.601876L342.617826,533.639042L342.723427,529.301158L343.136231,525.904374L359.216392,525.102968L366.819668,524.720646L367.357274,533.565518L368.403684,550.027422L368.528485,552.806609L367.98128,552.806609L368.230882,562.482296L368.096481,567.202502L376.726967,567.305435M334.064141,449.653191L344.144241,448.800319L363.603636,447.484249M343.136231,525.904374L343.241832,519.87545L342.925029,507.332347L342.502625,505.656012L341.369814,503.656174L337.635376,496.833197L336.857769,494.289285L336.512165,489.899934L333.670537,489.966105M370.208502,512.251067L371.485315,515.250824L372.810128,517.353595L376.102961,521.353271L379.991,524.000116L366.819668,524.720646M287.01407,520.845959L301.740617,520.72097L313.519935,520.529809L312.867129,524.257448L313.222332,528.257124L312.96313,532.969978L313.635136,533.830203L315.622356,533.396414L317.139171,531.624499L317.95518,532.058287L318.03198,535.558004M598.181982,604.434784L601.99322,606.464031L613.599736,612.375318L620.223802,615.838273L638.377584,625.631598L634.556746,632.476632L630.265503,638.733479L629.420694,639.976025L628.220682,641.718531L624.630246,647.321019L635.084751,654.680718L643.264033,660.268501L647.02727,662.650661L648.96649,667.554676L649.628896,670.10594L650.780908,671.223497M386.413464,567.32014L391.837518,567.32014L394.112741,567.283378L394.103141,570.091975L401.072811,570.091975L401.01521,561.122112L408.714487,560.98977L408.772088,562.585229L416.231362,562.467591L416.279363,564.327735L420.820208,564.246859L420.580206,559.681052L421.895419,555.585795L421.559416,553.380092L418.775388,551.578767L416.903369,550.792066L415.127351,550.850884L414.637746,550.064183L415.319353,546.586524L420.071401,546.307134M743.661837,308.061707L740.071401,313.443625L741.377014,313.833299L741.060211,315.583157L741.588216,317.310959L741.367414,319.318149L741.837818,320.097498L740.177002,323.266359L740.561006,323.913366L739.255393,326.376402L738.496985,329.537911L738.544985,332.067118L737.354574,334.280174L734.935349,335.699177L733.418534,337.46374L731.709717,340.963457L729.136891,344.808734L729.01209,346.058633L728.061681,346.889448L726.00726,347.345293L725.220052,348.881934L726.084061,349.675987L724.97045,352.63163L724.96085,354.940267L724.068041,354.822629L723.088831,358.829658L724.077641,360.535402L726.736867,374.600441L727.197672,377.026715L729.309693,388.003768L729.386494,388.38609L729.578496,389.474237"></path>
</svg>
